<svg xmlns="http://www.w3.org/2000/svg" viewBox="0 0 47.84 47.86"><defs><style>.cls-1{fill:#4154f1;}</style></defs><g id="Layer_2" data-name="Layer 2"><g id="header_and_nav" data-name="header and nav"><path class="cls-1" d="M22.53,47.86c-.91-.13-1.82-.22-2.72-.38a23.49,23.49,0,0,1-13.69-7.6,23.68,23.68,0,0,1-6-13.54c0-.34-.07-.67-.11-1V22.52c.12-.9.2-1.81.37-2.71A23.59,23.59,0,0,1,11.7,3.39,22.73,22.73,0,0,1,24.93,0a23.44,23.44,0,0,1,17,8.12,22.82,22.82,0,0,1,5.84,13.37,23.37,23.37,0,0,1-7,19.46,23.36,23.36,0,0,1-12.94,6.57c-.79.13-1.6.2-2.4.31ZM23.91,47A23.09,23.09,0,1,0,.83,23.89,23.13,23.13,0,0,0,23.91,47Z"/><path class="cls-1" d="M20.6,37.91a4.82,4.82,0,0,1-1-.63q-6.75-6.7-13.46-13.44a1.26,1.26,0,0,1,0-2c.45-.48.92-.94,1.4-1.4.79-.76,1.24-.75,2,0L19.71,30.6c.83.83.94.83,1.77,0L38.07,14c1-1,1.52-1,2.55,0,.36.36.73.71,1.08,1.08a1.28,1.28,0,0,1,0,2.06l-.21.22q-9.87,9.86-19.73,19.71A9.44,9.44,0,0,1,20.6,37.91Z"/></g></g></svg>