<svg xmlns="http://www.w3.org/2000/svg" viewBox="0 0 654 654"><defs><style>.cls-1{fill:#ff735d;}.cls-2{fill:#b3b3b3;}.cls-3{fill:#f2f2f2;}.cls-3,.cls-8{stroke:#4154f1;stroke-miterlimit:10;stroke-width:6px;}.cls-4{fill:#c84d3f;}.cls-5{fill:#e4c335;}.cls-6{fill:#66ad64;}.cls-7{fill:#4154f1;}.cls-8{fill:none;}</style></defs><g id="Layer_2" data-name="Layer 2"><g id="header_and_nav" data-name="header and nav"><path class="cls-1" d="M539.08,34.53a6.18,6.18,0,0,0-5.62-6.12,6.15,6.15,0,0,0-12.25,0,6.15,6.15,0,0,0,0,12.25,6.15,6.15,0,0,0,12.25,0A6.18,6.18,0,0,0,539.08,34.53Z"/><path class="cls-2" d="M25.87,8H628.13A18.87,18.87,0,0,1,647,26.87V80.69a0,0,0,0,1,0,0H7a0,0,0,0,1,0,0V26.87A18.87,18.87,0,0,1,25.87,8Z"/><rect class="cls-3" x="3" y="3" width="648" height="648" rx="20.25"/><path class="cls-1" d="M614.62,35.44h-.84v-.85a8.44,8.44,0,0,0-16.88,0v.85h-.84a8.46,8.46,0,0,0-8.44,8.43h0a8.46,8.46,0,0,0,8.44,8.43h.84v.85a8.44,8.44,0,0,0,16.88,0v-.85h.84a8.46,8.46,0,0,0,8.44-8.43h0A8.46,8.46,0,0,0,614.62,35.44Z"/><circle class="cls-4" cx="30.84" cy="44.34" r="9.28"/><circle class="cls-5" cx="66.28" cy="44.34" r="9.28"/><circle class="cls-6" cx="106.78" cy="44.34" r="9.28"/><rect class="cls-1" x="529.5" y="36.44" width="35.44" height="16.88" rx="8.44"/><rect class="cls-7" x="35.06" y="124.5" width="369.56" height="84.38" rx="20.25"/><rect class="cls-7" x="45.19" y="246" width="349.31" height="23.62" rx="11.81"/><rect class="cls-7" x="45.19" y="289.88" width="305.44" height="16.87" rx="8.44"/><rect class="cls-7" x="45.19" y="367.5" width="305.44" height="16.87" rx="8.44"/><rect class="cls-7" x="45.19" y="330.38" width="337.5" height="15.19" rx="7.59"/><rect class="cls-7" x="57" y="421.5" width="543.38" height="192.38" rx="19.62"/><line class="cls-8" x1="3" y1="75" x2="651" y2="75"/></g></g></svg>