<svg xmlns="http://www.w3.org/2000/svg" viewBox="0 0 777.34 536.05"><defs><style>.cls-1,.cls-16{fill:#e6e6e6;}.cls-2{fill:#4154f1;}.cls-10,.cls-11,.cls-12,.cls-14,.cls-15,.cls-16,.cls-2,.cls-3,.cls-4,.cls-5,.cls-6,.cls-7{fill-rule:evenodd;}.cls-3{fill:#6354a1;}.cls-4{fill:#3c51ce;}.cls-5{fill:#ff735d;}.cls-6{fill:#b74e46;}.cls-7{fill:#0c1332;}.cls-8{fill:#ffccc7;}.cls-10,.cls-9{fill:#fff;}.cls-11{fill:#7a72b3;}.cls-12{fill:#dcd7eb;}.cls-13,.cls-15{fill:#f2f2f2;stroke:#4154f1;stroke-miterlimit:10;stroke-width:8.79px;}.cls-14{fill:#3c2c86;}</style></defs><g id="Layer_2" data-name="Layer 2"><g id="header_and_nav" data-name="header and nav"><rect class="cls-1" x="302.81" y="276.36" width="25.62" height="251.69"/><path class="cls-2" d="M428.5,164.35V71.28H201.75a69.52,69.52,0,0,0-69.32,69.31V272.28a15.88,15.88,0,0,0,15.85,15.84H482a15.88,15.88,0,0,0,15.84-15.84V180.19A15.89,15.89,0,0,0,482,164.35Z"/><path class="cls-3" d="M271.78,71.28h-70a69.52,69.52,0,0,0-69.32,69.31v51.89H261.68a10.12,10.12,0,0,0,10.1-10.09Z"/><path class="cls-4" d="M321.37,298.15h6.33c.25,0,.49,0,.73,0V288.12H302.81V518.47h8.91V307.79A9.68,9.68,0,0,1,321.37,298.15Z"/><path class="cls-5" d="M317.29,253.1H132.43v19.18a15.88,15.88,0,0,0,15.85,15.84H455.92a15.88,15.88,0,0,0,15.84-15.84V164.35H428.5v-88a68.73,68.73,0,0,0-26.05-5.11,69.51,69.51,0,0,0-69.31,69.31v96.66A15.89,15.89,0,0,1,317.29,253.1Z"/><path class="cls-6" d="M497.81,140.59A69.51,69.51,0,0,0,428.5,71.28h0a69.51,69.51,0,0,0-69.31,69.31V272.28A15.88,15.88,0,0,0,375,288.12H482a15.88,15.88,0,0,0,15.84-15.84Z"/><path class="cls-7" d="M364.25,114.66a68.7,68.7,0,0,0-5.06,25.93V272.28A15.88,15.88,0,0,0,375,288.12h90.63a14.68,14.68,0,0,0,14.64-14.63V151.85a64.21,64.21,0,0,0-64-64h0A64.09,64.09,0,0,0,364.25,114.66Z"/><rect class="cls-8" y="9.16" width="263.42" height="175.34" rx="10.1"/><path class="cls-5" d="M48,184.5H10.1A10.13,10.13,0,0,1,0,174.4V23.4H48Z"/><path class="cls-2" d="M10.1,9.16H253.32a10.13,10.13,0,0,1,10.1,10.1V30.57H0V19.26A10.12,10.12,0,0,1,10.1,9.16Z"/><circle class="cls-9" cx="11.31" cy="19.87" r="3.23"/><path class="cls-10" d="M23.13,23.1a3.24,3.24,0,1,0-3.23-3.23A3.23,3.23,0,0,0,23.13,23.1Z"/><circle class="cls-9" cx="34.95" cy="19.87" r="3.23"/><rect class="cls-9" x="8.43" y="72.08" width="31.11" height="3.03" rx="1.51"/><rect class="cls-9" x="8.43" y="78.75" width="18.94" height="3.03" rx="1.51"/><rect class="cls-9" x="8.43" y="92.18" width="31.11" height="3.03" rx="1.51"/><path class="cls-9" d="M9.95,98.85H25.86a1.51,1.51,0,0,1,1.51,1.51v0a1.52,1.52,0,0,1-1.52,1.52H9.95a1.52,1.52,0,0,1-1.52-1.52v0A1.51,1.51,0,0,1,9.95,98.85Z"/><path class="cls-9" d="M31.26,98.85h2.33a1.51,1.51,0,0,1,1.51,1.51v0a1.52,1.52,0,0,1-1.52,1.52H31.26a1.52,1.52,0,0,1-1.52-1.52v0a1.51,1.51,0,0,1,1.51-1.51Z"/><rect class="cls-9" x="8.43" y="114.2" width="17.32" height="3.03" rx="1.51"/><rect class="cls-9" x="8.43" y="107.54" width="22.78" height="3.03" rx="1.51"/><rect class="cls-9" x="34.06" y="107.54" width="6.44" height="3.03" rx="1.51"/><rect class="cls-9" x="8.43" y="121.17" width="12.47" height="3.03" rx="1.51"/><rect class="cls-9" x="8.43" y="127.84" width="23.99" height="3.03" rx="1.51"/><path class="cls-9" d="M78.43,62.59H236.65a1.51,1.51,0,0,1,1.51,1.51v0a1.52,1.52,0,0,1-1.52,1.52H78.43a1.52,1.52,0,0,1-1.52-1.52v0a1.51,1.51,0,0,1,1.51-1.51Z"/><path class="cls-10" d="M64.54,66.63A2.53,2.53,0,1,0,62,64.1,2.53,2.53,0,0,0,64.54,66.63Z"/><rect class="cls-9" x="76.91" y="75.52" width="161.25" height="3.03" rx="1.51"/><path class="cls-10" d="M64.54,79.56A2.53,2.53,0,1,0,62,77,2.53,2.53,0,0,0,64.54,79.56Z"/><path class="cls-9" d="M78.43,88.44H236.65A1.52,1.52,0,0,1,238.16,90v0a1.51,1.51,0,0,1-1.51,1.51H78.43A1.51,1.51,0,0,1,76.91,90v0A1.52,1.52,0,0,1,78.43,88.44Z"/><path class="cls-10" d="M64.54,92.48A2.53,2.53,0,1,0,62,90,2.52,2.52,0,0,0,64.54,92.48Z"/><path class="cls-9" d="M78.43,101.37H236.65a1.51,1.51,0,0,1,1.51,1.51v0a1.52,1.52,0,0,1-1.52,1.52H78.43a1.52,1.52,0,0,1-1.52-1.52v0A1.51,1.51,0,0,1,78.43,101.37Z"/><path class="cls-10" d="M64.54,105.41A2.53,2.53,0,1,0,62,102.89,2.52,2.52,0,0,0,64.54,105.41Z"/><path class="cls-9" d="M78.43,114.3H236.65a1.51,1.51,0,0,1,1.51,1.51v0a1.52,1.52,0,0,1-1.52,1.52H78.43a1.52,1.52,0,0,1-1.52-1.52v0A1.51,1.51,0,0,1,78.43,114.3Z"/><path class="cls-10" d="M64.54,118.34A2.53,2.53,0,1,0,62,115.82,2.52,2.52,0,0,0,64.54,118.34Z"/><path class="cls-9" d="M78.43,127.23H236.65a1.51,1.51,0,0,1,1.51,1.51v0a1.52,1.52,0,0,1-1.52,1.52H78.43a1.51,1.51,0,0,1-1.51-1.51v0A1.52,1.52,0,0,1,78.43,127.23Z"/><path class="cls-10" d="M64.54,131.27A2.53,2.53,0,1,0,62,128.74,2.53,2.53,0,0,0,64.54,131.27Z"/><rect class="cls-9" x="76.91" y="140.16" width="161.25" height="3.03" rx="1.51"/><path class="cls-10" d="M64.54,144.2A2.53,2.53,0,1,0,62,141.67,2.53,2.53,0,0,0,64.54,144.2Z"/><rect class="cls-9" x="76.91" y="153.08" width="161.25" height="3.03" rx="1.51"/><path class="cls-10" d="M64.54,157.12A2.52,2.52,0,1,0,62,154.6,2.52,2.52,0,0,0,64.54,157.12Z"/><rect class="cls-9" x="62.01" y="40.36" width="123.43" height="6.06" rx="3.03"/><rect class="cls-9" x="192.71" y="40.36" width="45.45" height="6.06" rx="3.03"/><circle class="cls-9" cx="23.99" cy="50.75" r="12.38" transform="translate(-0.34 0.16) rotate(-0.38)"/><path class="cls-11" d="M30.39,58.86a10.34,10.34,0,0,1-12.8,0A6.41,6.41,0,0,1,24,52.67h0a6.42,6.42,0,0,1,6.4,6.19ZM24,41.94a4.6,4.6,0,1,1-4.6,4.6A4.6,4.6,0,0,1,24,41.94Z"/><path class="cls-12" d="M766.09,3.61H680.91a11.29,11.29,0,0,0-11.25,11.25v86.7a1.25,1.25,0,0,0,2.14.89L691,83.28h75.12A11.28,11.28,0,0,0,777.34,72V14.86A11.28,11.28,0,0,0,766.09,3.61Z"/><path class="cls-5" d="M761.27,0H676.08a11.28,11.28,0,0,0-11.25,11.25V98a1.25,1.25,0,0,0,2.14.89l19.17-19.17h75.13a11.28,11.28,0,0,0,11.24-11.25V11.25A11.28,11.28,0,0,0,761.27,0Z"/><path class="cls-10" d="M709.46,23.06a1,1,0,1,0,0-1.94H684.9a1,1,0,0,0,0,1.94Z"/><path class="cls-10" d="M709.46,33.88a1,1,0,0,0,0-2H696.41a1,1,0,1,0,0,2Z"/><path class="cls-10" d="M709.46,42.3a1,1,0,0,0,0-1.95H681.12a1,1,0,0,0,0,1.95Z"/><path class="cls-10" d="M709.46,53.46a1,1,0,0,0,0-2h-26.1a1,1,0,1,0,0,2Z"/><path class="cls-10" d="M676.57,51.51a1,1,0,0,0,0,2h3.27a1,1,0,0,0,0-2Z"/><path class="cls-10" d="M740.28,59.78a21.46,21.46,0,1,0-21.46-21.46A21.5,21.5,0,0,0,740.28,59.78Z"/><path class="cls-11" d="M751.38,52.39a17.93,17.93,0,0,1-22.2,0,11.15,11.15,0,0,1,11.1-10.75h0a11.14,11.14,0,0,1,11.1,10.75Zm-11.1-29.34a8,8,0,1,1-8,8A8,8,0,0,1,740.28,23.05Z"/><path class="cls-10" d="M557.83,131.65a1.67,1.67,0,1,0-1.67-1.67A1.66,1.66,0,0,0,557.83,131.65Z"/><path class="cls-10" d="M587.23,145.4a1.67,1.67,0,0,0,0-3.33,1.67,1.67,0,1,0,0,3.33Z"/><rect class="cls-13" x="473.38" y="125.06" width="199.21" height="126.81" rx="5.24"/><path class="cls-2" d="M667.35,125.06H478.63a5.26,5.26,0,0,0-5.25,5.24v4.47l87,80.36c14.05,13,9.9,14.13,23.6,1.47l88.6-81.83V130.3A5.26,5.26,0,0,0,667.35,125.06Z"/><path class="cls-14" d="M473.38,241.6v5a5.26,5.26,0,0,0,5.25,5.24H667.35a5.26,5.26,0,0,0,5.24-5.24v-5L583.31,166c-12.85-10.88-9-9.9-22.14,1.27Z"/><path class="cls-15" d="M473.51,247.76a5.26,5.26,0,0,0,5.12,4.11H667.35a5.26,5.26,0,0,0,5.11-4.11l-90.14-76.34c-11.62-9.83-8.1-8.95-20,1.14Z"/><path class="cls-16" d="M657.52,235.11l-75.2-63.69c-11.62-9.83-8.1-8.95-20,1.14l-74.36,63H655.46A5.23,5.23,0,0,0,657.52,235.11Z"/><path class="cls-2" d="M608.71,193.77l-26.39-22.35c-11.62-9.83-8.1-8.95-20,1.14l-25,21.21,23.13,21.36c14.05,13,9.9,14.13,23.6,1.47Z"/><path class="cls-16" d="M667.35,125.06H478.63a5.25,5.25,0,0,0-4.24,2.16l87.92,81.21c11.91,11,8.39,12,20,1.24l89.26-82.45A5.24,5.24,0,0,0,667.35,125.06Z"/><path class="cls-2" d="M632.52,146l-8.31,7.68-26.5,24.47-3.54,3.27-22.5,20.78c-4.33,4-6.56,6.38-8.26,7.21,10.6,10,7.66,10.61,18.91.22l21.6-19.95,3.53-3.27,20.81-19.22,1.62-1.5,26.86-24.81,4-3.66,10.87-10a5.24,5.24,0,0,0-4.23-2.16H655.23l-3,2.8Z"/><path class="cls-2" d="M340.55,523.81H290.79a8.38,8.38,0,0,1-8.35-8.36h0a8.38,8.38,0,0,1,8.35-8.36h49.76a8.38,8.38,0,0,1,8.36,8.36h0A8.38,8.38,0,0,1,340.55,523.81Z"/><path class="cls-2" d="M353.72,536.05H277.63a10.32,10.32,0,0,1-10.3-10.3h0a10.33,10.33,0,0,1,10.3-10.3h76.09a10.34,10.34,0,0,1,10.3,10.3h0A10.33,10.33,0,0,1,353.72,536.05Z"/></g></g></svg>