<svg xmlns="http://www.w3.org/2000/svg" xmlns:xlink="http://www.w3.org/1999/xlink" viewBox="0 0 861.68 707.82"><defs><style>.cls-1,.cls-15,.cls-2,.cls-21,.cls-22,.cls-23,.cls-24,.cls-26,.cls-27,.cls-28,.cls-7,.cls-9{fill:none;}.cls-2,.cls-9{stroke:#ded8d5;}.cls-12,.cls-2,.cls-23,.cls-28,.cls-9{stroke-miterlimit:10;}.cls-12,.cls-2{stroke-width:4px;}.cls-3{fill:#ffb1a5;}.cls-4{fill:#ead254;}.cls-5{fill:#00857b;}.cls-6{fill:#ff735d;}.cls-12,.cls-28,.cls-7{stroke:#fff;}.cls-15,.cls-21,.cls-22,.cls-24,.cls-26,.cls-27,.cls-7{stroke-linecap:round;stroke-linejoin:round;}.cls-7{stroke-width:2.31px;}.cls-8{fill:#ededed;}.cls-9{stroke-width:2.77px;}.cls-10,.cls-12{fill:#fff;}.cls-11{fill:#f2f2f2;}.cls-13{clip-path:url(#clip-path);}.cls-14{fill:#8e716c;}.cls-15,.cls-21,.cls-22,.cls-24,.cls-26,.cls-27{stroke:#282828;}.cls-15{stroke-width:1.73px;}.cls-16{fill:#f3978e;}.cls-17{fill:#372f5f;}.cls-18{fill:#261b43;}.cls-19{fill:#e6e6e6;}.cls-20{fill:#282828;}.cls-21{stroke-width:1.4px;}.cls-22{stroke-width:1.73px;}.cls-23{stroke:#c98bd2;stroke-width:1.89px;}.cls-24{stroke-width:1.73px;}.cls-25{fill:#005683;}.cls-26{stroke-width:1.96px;}.cls-27{stroke-width:2.15px;}.cls-28{stroke-width:2.74px;}</style><clipPath id="clip-path"><rect class="cls-1" x="178.66" y="93" width="744" height="515"/></clipPath></defs><g id="Layer_2" data-name="Layer 2"><g id="header_and_nav" data-name="header and nav"><line class="cls-2" x1="99.57" y1="173.39" x2="801.39" y2="173.39"/><rect class="cls-2" x="99.57" y="127.38" width="701.81" height="434.22" rx="9.16"/><path class="cls-3" d="M145.83,150.86a6.42,6.42,0,1,1-6.42-6.42A6.43,6.43,0,0,1,145.83,150.86Z"/><path class="cls-4" d="M170.77,150.86a6.42,6.42,0,1,1-6.41-6.42A6.42,6.42,0,0,1,170.77,150.86Z"/><path class="cls-5" d="M195.72,150.86a6.42,6.42,0,1,1-6.42-6.42A6.42,6.42,0,0,1,195.72,150.86Z"/><rect class="cls-6" x="759.03" y="197.1" width="102.65" height="87.18" rx="8.46" transform="translate(1620.72 481.39) rotate(180)"/><polygon class="cls-7" points="833.77 255.19 793.65 255.19 786.4 255.19 786.4 223.42 833.77 223.42 833.77 231.36 833.77 255.19"/><polyline class="cls-7" points="786.4 223.42 810.09 242.09 833.77 223.42"/><rect class="cls-8" x="1.38" y="302.88" width="173.36" height="153.2" rx="8.03"/><rect class="cls-9" x="1.38" y="302.88" width="173.36" height="153.2" rx="8.03"/><rect class="cls-6" x="37.53" y="329.12" width="100.24" height="97.45" rx="9.33"/><path class="cls-10" d="M68.23,358.71a28.34,28.34,0,1,0,40.08,0A28.45,28.45,0,0,0,68.23,358.71Zm40,4.08h-9a57.73,57.73,0,0,0-3.51-8.51A25.61,25.61,0,0,1,108.24,362.79Zm-30.38,14.3a45.82,45.82,0,0,1,1.34-11H97.33a45.32,45.32,0,0,1,1.34,11Zm20.7,3.32a54.31,54.31,0,0,1-1.94,11H79.92a53.65,53.65,0,0,1-2-11ZM88.27,353.18a26.33,26.33,0,0,1,4,.31,51.71,51.71,0,0,1,4.11,9.3H80.15a52.43,52.43,0,0,1,4.11-9.3A26.46,26.46,0,0,1,88.27,353.18Zm-7.44,1.1a58.83,58.83,0,0,0-3.51,8.51h-9A25.66,25.66,0,0,1,80.83,354.28ZM66,366.11H76.38a49.84,49.84,0,0,0-1.45,11H62.75A25.45,25.45,0,0,1,66,366.11Zm0,25.29a25.49,25.49,0,0,1-3.29-11H75a53.09,53.09,0,0,0,1.72,11Zm2.25,3.31h9.4a69.8,69.8,0,0,0,3.49,8.62A25.62,25.62,0,0,1,68.29,394.71Zm20,9.61a24.59,24.59,0,0,1-3.35-.22,75.3,75.3,0,0,1-4-9.39H95.58a76.74,76.74,0,0,1-4,9.39A24.8,24.8,0,0,1,88.27,404.32Zm7.08-1a68.28,68.28,0,0,0,3.49-8.62h9.4A25.62,25.62,0,0,1,95.35,403.33Zm15.14-11.93H99.82a53.12,53.12,0,0,0,1.73-11h12.23A25.35,25.35,0,0,1,110.49,391.4Zm3.29-14.31H101.6a49.25,49.25,0,0,0-1.45-11h10.34A25.31,25.31,0,0,1,113.78,377.09Z"/><path class="cls-11" d="M157.34,87.32H14.83A5.34,5.34,0,0,1,9.5,82h0a5.33,5.33,0,0,1,5.33-5.33H157.34A5.33,5.33,0,0,1,162.67,82h0A5.34,5.34,0,0,1,157.34,87.32Z"/><rect class="cls-6" x="36.3" y="518.03" width="16.49" height="15.98" rx="4.02"/><rect class="cls-6" x="550.76" y="39" width="149.12" height="42.81" rx="4.23"/><line class="cls-12" x1="571.07" y1="54.25" x2="671.1" y2="54.25"/><line class="cls-12" x1="571.07" y1="61.15" x2="611.82" y2="61.15"/><polygon class="cls-6" points="567 76.97 567 93.65 587.98 76.97 567 76.97"/><path class="cls-11" d="M279.09,0h71a9.08,9.08,0,0,1,9.08,9.08v66.2a9.08,9.08,0,0,1-9.08,9.08H282a12,12,0,0,1-12-12V9.08A9.08,9.08,0,0,1,279.09,0Z"/><path class="cls-10" d="M335.38,48.42l-5.08-5.08A4.42,4.42,0,0,0,327,41.8a4.66,4.66,0,0,0-3.26,1.45l-2.9,2.9-.55-.27a6.82,6.82,0,0,1-.9-.46,31.29,31.29,0,0,1-7.53-6.88,16.54,16.54,0,0,1-2.35-3.72c.72-.64,1.36-1.36,2-2,.27-.28.55-.55.82-.82a4.84,4.84,0,0,0,1.54-3.35,4.84,4.84,0,0,0-1.54-3.36l-2.54-2.54a9.28,9.28,0,0,1-.82-.9l-1.72-1.72A4.66,4.66,0,0,0,304,18.69a4.46,4.46,0,0,0-3.26,1.45l-3.18,3.17a7.27,7.27,0,0,0-2.08,4.44,16.44,16.44,0,0,0,1.18,6.89,37,37,0,0,0,7.07,11.87,44,44,0,0,0,14.5,11.33,23.89,23.89,0,0,0,8.16,2.45H327a7.2,7.2,0,0,0,5.44-2.36l.09-.09a13.92,13.92,0,0,1,1.63-1.63L335.38,55A4.54,4.54,0,0,0,335.38,48.42Zm-2.08,4.71-1.09,1.09c-.64.54-1.18,1.17-1.82,1.81a4.28,4.28,0,0,1-3.26,1.36h-.45a19,19,0,0,1-7.07-2.18,41.19,41.19,0,0,1-13.51-10.6,39.33,39.33,0,0,1-6.61-11A11.2,11.2,0,0,1,298.4,28a3.81,3.81,0,0,1,1.27-2.63l3.08-3.08a1.89,1.89,0,0,1,1.27-.63,1.76,1.76,0,0,1,1.27.63l1.63,1.63a7.81,7.81,0,0,0,.91.91l2.53,2.54a2.07,2.07,0,0,1,.64,1.27,1.85,1.85,0,0,1-.64,1.26l-.81.82L307.28,33l-.09.09a2,2,0,0,0-.54,2.26v.09a20.55,20.55,0,0,0,3,4.9,33.64,33.64,0,0,0,8.25,7.52,8.46,8.46,0,0,0,1.17.64A7.72,7.72,0,0,1,320,49l.09.09a2.1,2.1,0,0,0,2.54-.45l3.17-3.18a1.51,1.51,0,0,1,2.45,0l5.08,5.08A1.73,1.73,0,0,1,333.3,53.13Z"/><g class="cls-13"><path class="cls-14" d="M676.25,444.74,625,437.91l.41,5.09-43.86,5.84s-28.28,70.93-3.36,226.93h35.68l12.84-158.18h4.56l12.44,158.18h35.68C704.25,519.77,676.25,444.74,676.25,444.74Z"/><line class="cls-15" x1="610.35" y1="517.59" x2="647.57" y2="517.59"/><path class="cls-3" d="M706.21,369.92c-4.39-7-29-6.76-30.34-6.91-6.66-.79,4.27,52.25,18.14,98.61a15.55,15.55,0,0,0,21,9.89l.27-.11a15.59,15.59,0,0,0,9.24-17.25C717.91,419.17,711.29,378,706.21,369.92Z"/><polygon class="cls-16" points="712.09 389.09 680.61 401.31 677.66 386.37 710.25 378.24 712.09 389.09"/><path class="cls-16" d="M718,419s-14.91,20-14.2,19.11,11.7-32.37,11.7-32.37Z"/><path class="cls-3" d="M739.35,392.05l-42.74,55.38a15.72,15.72,0,0,0,3.89,22.79h0a15.72,15.72,0,0,0,22.37-5.7l35.58-65.64Z"/><path class="cls-3" d="M750.42,406.27a17.63,17.63,0,1,1,22.19-11.35A17.63,17.63,0,0,1,750.42,406.27Z"/><path class="cls-3" d="M768.69,378.9s4.83-5-3.73-8.52-19.15-2.71-25.9,13.7Z"/><path class="cls-17" d="M777.56,343.9l17.89,7.76a1.84,1.84,0,0,1,.81,2.64l-23.54,44a2.25,2.25,0,0,1-2.79,1.08L752,391.59a1.84,1.84,0,0,1-.81-2.64l23.54-44A2.25,2.25,0,0,1,777.56,343.9Z"/><path class="cls-18" d="M775.85,343.12l17.9,7.76a1.85,1.85,0,0,1,.8,2.64l-23.54,44a2.25,2.25,0,0,1-2.79,1.08l-17.9-7.76a1.84,1.84,0,0,1-.81-2.64l23.54-44A2.25,2.25,0,0,1,775.85,343.12Z"/><polygon class="cls-19" points="773.83 347.6 789.55 354.42 770.37 390.25 754.64 383.44 773.83 347.6"/><polygon class="cls-10" points="789.55 354.42 754.64 383.44 773.83 347.6 789.55 354.42"/><path class="cls-3" d="M759.82,368.92a28.78,28.78,0,0,1,7.58,2.81,4.06,4.06,0,0,1,2,4.5h0a4,4,0,0,1-3.4,3l-9.31,1.18s-4.85,8.36-11.19,9.3L751.28,375Z"/><path class="cls-11" d="M641,300.18c-1,0,66,9.27,77,85.67l-34.77,5.32-7,57.67h-97L560,342.29s21.49-30.8,61.39-42.11Z"/><line class="cls-11" x1="683.26" y1="391.17" x2="686.28" y2="357.82"/><path class="cls-3" d="M647.37,301.27V274.74h-31.1v26.84a61.69,61.69,0,0,0-8.35,3.39l24.25,14.45L657,305A40.48,40.48,0,0,0,647.37,301.27Z"/><path class="cls-20" d="M616,278s5.59,14.83,20.5,13.55C650.18,290.35,648,269.8,648,269.8Z"/><path class="cls-16" d="M602.42,258.26c-4.87,4.42-15.77-12.35-11.06-17.06s8.3,2.68,8.3,2.68l2.1,5,1.59,6.78.38,1.78Z"/><path class="cls-21" d="M593.63,247.14s3.69-1.66,7,3.69"/><path class="cls-16" d="M660.06,257.75c4.48,4.82,16.76-11,12.47-16.06s-8.5,2-8.5,2l-2.52,4.81-2.15,6.62-.53,1.73Z"/><path class="cls-21" d="M669.76,247.42s-3.54-2-7.26,3.08"/><path class="cls-20" d="M593.87,225.21c0,22.19,16.93,32.72,37.8,32.72s37.8-10.53,37.8-32.72-16.92-37.3-37.8-37.3S593.87,203,593.87,225.21Z"/><path class="cls-3" d="M599,226.75a151.79,151.79,0,0,0,3.85,33.73c1.88,8.17,7.17,13.88,14.66,18.48l1.36.84a25.74,25.74,0,0,0,26.18.29h0c8.11-4.73,13.79-11,15.54-19.73a222.64,222.64,0,0,0,3.52-33.61s3-34.4-32.09-33.73S599,226.75,599,226.75Z"/><path class="cls-22" d="M629.43,246.38v4.76a2.15,2.15,0,0,0,.16.8,2.12,2.12,0,0,0,2.53,1.17l2.18-.58"/><path class="cls-20" d="M623.85,227.92,606.4,232s.79-4.44,7.93-6S623.85,227.92,623.85,227.92Z"/><path class="cls-20" d="M639.34,227.92,656.19,232s-.77-4.44-7.66-6S639.34,227.92,639.34,227.92Z"/><ellipse class="cls-20" cx="617.22" cy="240.74" rx="2.94" ry="2.94"/><path class="cls-20" d="M648.07,240.74a2.95,2.95,0,1,1-3-2.93A2.95,2.95,0,0,1,648.07,240.74Z"/><path class="cls-10" d="M620.16,258.65h22.7S632.8,270.89,620.16,258.65Z"/><circle class="cls-23" cx="615.98" cy="241.88" r="12.51" transform="translate(9.38 506.41) rotate(-45)"/><circle class="cls-23" cx="646.73" cy="241.88" r="12.51" transform="translate(18.39 528.15) rotate(-45)"/><path class="cls-23" d="M628.5,241.88s3-2.77,5.71,0"/><line class="cls-23" x1="603.47" y1="241.88" x2="599.53" y2="241.78"/><line class="cls-23" x1="659.24" y1="241.88" x2="663.21" y2="241.78"/><path class="cls-20" d="M663.67,238.15s-14-19-10.8-38.2A27.64,27.64,0,0,1,666,218.73C668.72,232.26,663.67,238.15,663.67,238.15Z"/><path class="cls-20" d="M599,239.44s16.31-21.56,13.07-40.78c0,0-11.31,6.53-14,20.07S599,239.44,599,239.44Z"/><path class="cls-20" d="M662.49,207.52s-18,19.73-67.35,16.36c0,0,7.56-29,31.46-32C626.6,191.83,654.2,188.54,662.49,207.52Z"/><circle class="cls-20" cx="661.23" cy="184.45" r="23.55" transform="translate(373.77 807.83) rotate(-80.83)"/><path class="cls-20" d="M373.76,444.69l-43.86-5.84.4-5.1L279,440.58s-28,75-3.08,231H311.6L324,513.43h4.56l12.85,158.18h35.67C402,515.62,373.76,444.69,373.76,444.69Z"/><path class="cls-20" d="M370.26,231.29c-5.94-7-10.69-15.14-14.73-26.57-4.33-12.27-18.53-7.28-18.53-7.28s-11.84-15.22-29.64-9.92-24,18-24.36,33S270.79,238,261.67,255.4c-16.11,30.76,11,56.67,60.37,49.49l.07-.48a52,52,0,0,0,18.09,1.69C399.5,302.58,393.78,259,370.26,231.29Z"/><path class="cls-16" d="M350.85,254.1c4.87,4.42,15.77-12.35,11.06-17.06s-8.3,2.68-8.3,2.68l-2.11,5-1.58,6.78-.38,1.77Z"/><path class="cls-21" d="M359.63,243s-3.69-1.66-7,3.69"/><path class="cls-16" d="M293.21,253.59c-4.49,4.82-16.77-11-12.47-16.06s8.5,2,8.5,2l2.52,4.81,2.15,6.62.53,1.74Z"/><path class="cls-21" d="M283.51,243.26s3.54-2,7.25,3.08"/><path class="cls-20" d="M359.39,221.05c0,22.19-16.92,32.72-37.8,32.72s-37.8-10.53-37.8-32.72,16.93-37.3,37.8-37.3S359.39,198.85,359.39,221.05Z"/><rect class="cls-3" x="305.9" y="270.58" width="31.1" height="40.27"/><path class="cls-20" d="M301.36,268.07s8.66,17.27,19.31,20a15,15,0,0,0,8.62-.5c4-1.42,9.09-7.39,10-14l.4-3.77S320.7,280.07,301.36,268.07Z"/><path class="cls-3" d="M354.26,222.59a151.79,151.79,0,0,1-3.85,33.73c-1.88,8.17-7.18,13.88-14.66,18.48l-1.36.84a25.76,25.76,0,0,1-26.19.29h0c-8.11-4.73-13.78-11-15.53-19.73a221.17,221.17,0,0,1-3.52-33.61s-3-34.4,32.09-33.73S354.26,222.59,354.26,222.59Z"/><path class="cls-24" d="M319.25,244.09v2.82a2,2,0,0,0,2.68,2l2.18-.58"/><path class="cls-20" d="M326.56,225.44l18.69,4.42s-.85-4.8-8.5-6.55S326.56,225.44,326.56,225.44Z"/><path class="cls-20" d="M316.76,225.44l-18.93,4.42s.87-4.8,8.61-6.55S316.76,225.44,316.76,225.44Z"/><path class="cls-20" d="M310,237a2.95,2.95,0,1,1-2.94-2.92A2.94,2.94,0,0,1,310,237Z"/><path class="cls-20" d="M337.88,237a2.95,2.95,0,1,1-2.94-2.92A2.94,2.94,0,0,1,337.88,237Z"/><path class="cls-10" d="M308,253.77h25.83s-1.82,7.1-13.53,7.1A13.71,13.71,0,0,1,308,253.77Z"/><path class="cls-20" d="M289.6,234s14-19,10.8-38.21a27.64,27.64,0,0,0-13.13,18.78C284.55,228.1,289.6,234,289.6,234Z"/><path class="cls-20" d="M354.28,233.36S338,213.73,341.21,194.5c0,0,11.31,6.53,14,20.07S354.28,233.36,354.28,233.36Z"/><path class="cls-20" d="M290.78,203.36s16.1,21.65,65.42,18.28c0,0-5.63-30.88-29.53-34C326.67,187.68,299.07,184.38,290.78,203.36Z"/><path class="cls-3" d="M245.82,539.93c-.72,1.13,41.05-181.73,28.65-179-1.13.25-22.85,2.27-26.08,8.83-9.36,19-16.07,168.74-16.07,168.74Z"/><path class="cls-3" d="M232.32,538.54s-6.73,31.24,18.72,34.65a3.56,3.56,0,0,0,3.85-2.36l.07-.21a3.56,3.56,0,0,0-2-4.42c-4.15-1.86-10.58-6.55-7.39-17.19,0,0,3.68-.45,5.71,6.41a3,3,0,0,0,4.15,1.82h0a2.94,2.94,0,0,0,1.59-3c-.61-4.81-3-16.38-12.3-19.48Z"/><path class="cls-16" d="M240.89,413.74S265,447.63,265.08,447s8.41-47.58,8.41-47.58l-29.2-12.65Z"/><path class="cls-11" d="M307.75,304.22c1,0-59.47,1.07-70.53,77.47L272,387l7,57.68h97l19.25-106.56s-13.69-23.09-53.59-34.4Z"/><path class="cls-3" d="M278.18,313.45s8.55,11.35,43.58,11.35c34.71,0,43.58-11.94,43.58-11.94s-20.46-11.43-44.2-15.13A157.09,157.09,0,0,0,278.18,313.45Z"/><polygon class="cls-25" points="397.21 555.47 397.3 707.82 472.67 707.82 478.46 555.47 397.21 555.47"/><polygon class="cls-25" points="560.86 555.47 560.78 707.82 485.41 707.82 479.62 555.47 560.86 555.47"/><rect class="cls-25" x="441.77" y="555.47" width="77.93" height="52.93"/><line class="cls-26" x1="452.65" y1="608.39" x2="506.4" y2="608.39"/><path class="cls-3" d="M608.48,422.51c4.67,51.62-.26,89.24,1.1,184.24l-45,1.88-6.71-177.82Z"/><path class="cls-16" d="M563.44,462.79s27.86-2.55,46.91-15.11l-.51-11.06L563.43,443Z"/><path class="cls-6" d="M518.75,303.65s88.49,22.25,104.52,134.56c0,0-43.31,18.78-86.71,10.7l9.77-37.56Z"/><path class="cls-3" d="M254.45,350.35l65.88,77.8-20.16,56.78S250.1,415.31,227.6,361.5Z"/><path class="cls-3" d="M256.62,353.15s-23.14,13.08-29,8.35C217.32,353.23,208.82,323,208.82,323s43.26-16.31,42.85-15.67S256.62,353.15,256.62,353.15Z"/><path class="cls-3" d="M256.62,353.15c-.41-2.32,8.58-27.45,11.66-36.87A4.17,4.17,0,0,0,265,311h0c-1.61-.31-4.15-.11-5.35,2.2l-10.85,18.54Z"/><path class="cls-3" d="M255.83,326l-7.45-37.06a4.67,4.67,0,0,0-5.4-3.7h0a4,4,0,0,0-3.3,4.46l3.25,27.6Z"/><path class="cls-3" d="M241,312.32l-10.12-26.47a4.64,4.64,0,0,0-5.74-2.83h0a4,4,0,0,0-2.65,4.75L230,318.36Z"/><path class="cls-3" d="M230.14,320.13l-12.8-26a5.1,5.1,0,0,0-6.5-2.49h0a4.43,4.43,0,0,0-2.29,5.85L218.76,322Z"/><path class="cls-3" d="M208.82,323l-10-15.93a3.6,3.6,0,0,1,1.76-4.81h0a4.12,4.12,0,0,1,5,1.46L218.76,322Z"/><path class="cls-27" d="M253.8,323.21s-15.08-1.58-16.63,18.52"/><path class="cls-6" d="M286.81,458.37s12.39,42.89,37.09,37.18,63.17-58.43,63.17-58.43l-8.61-90.05-69.31,85.29Z"/><path class="cls-6" d="M330.65,405.87s23.4,35.29,43.36,47.74l13.06-16.49-50.4-39Z"/><path class="cls-6" d="M433,301.7S364.33,317.18,327.72,397c0,0,22.12,33.33,57.58,48.14L409,416.08Z"/><path class="cls-6" d="M433,301.45a172.2,172.2,0,0,0-43.7,32l5.29,233.38H563.72l-.55-232.17s-21.32-20.86-44.42-31C499.13,295,452.1,291.67,433,301.45Z"/><path class="cls-26" d="M489.52,368.13h47a0,0,0,0,1,0,0v23.52A23.52,23.52,0,0,1,513,415.17h0a23.52,23.52,0,0,1-23.52-23.52V368.13A0,0,0,0,1,489.52,368.13Z"/><line class="cls-26" x1="563.44" y1="449.78" x2="565.64" y2="373.43"/><line class="cls-26" x1="391.92" y1="437.05" x2="388.26" y2="370.87"/><path class="cls-20" d="M435,216.21,428,181.34c-.39-2.84-1.49-7.23-.14-11.35,2.23-6.81,10.43-19.9,24.46-13.91l3,13.81s-14.56,2.94-20.41,22Z"/><path class="cls-20" d="M451.24,163.28c-.26,4.58-4.3,24.63-18.52,31.94C432.72,195.22,420.26,168.51,451.24,163.28Z"/><path class="cls-3" d="M501.12,295h0V235.81H446.53V295l-16.25,7.41s3.81,24.54,44.12,25.09,44.35-23.88,44.35-23.88Z"/><path class="cls-20" d="M452.27,156.08s10-26.43,40.91-12.38c18.7,8.51,23.94,19.91,26.17,28a32.17,32.17,0,0,1,.83,9.42l-7.47,35.1-29.18-48.56-28.23,2.24Z"/><path class="cls-16" d="M512.71,216.21s3.68-5.85,11.27-3,4.16,21.31-7.23,23.66a9,9,0,0,1-7.28-1.9S512.27,221.38,512.71,216.21Z"/><path class="cls-26" d="M522.48,219.74s-6.36-2.12-10.88,7.24"/><path class="cls-16" d="M435,216.21s-3.68-5.85-11.27-3-4.15,21.31,7.23,23.66a9,9,0,0,0,7.28-1.9S435.44,221.38,435,216.21Z"/><path class="cls-26" d="M425.24,219.74s6.36-2.12,10.87,7.24"/><path class="cls-3" d="M513.47,198.72c0,11.11-1.09,34.36-7.92,48.16-6.41,13-17,19.93-30.93,20.35s-24.28-5-32.58-21.76-7.91-46.55-7.91-46.55,0-39.7,39.24-39.7C514.7,159.22,513.47,198.72,513.47,198.72Z"/><path class="cls-20" d="M446.94,253.75s4.57,23.2,24.76,25.87c23.23,3.06,29.42-25.28,29.42-25.28s-10.27,12.87-26.5,12.89A35.53,35.53,0,0,1,446.94,253.75Z"/><path class="cls-26" d="M471,215.2v9.19a3,3,0,0,0,.22,1.12,2.94,2.94,0,0,0,3.52,1.63l3.05-.81"/><path class="cls-20" d="M459.41,210.81a3.57,3.57,0,1,1-3.57-3.57A3.57,3.57,0,0,1,459.41,210.81Z"/><path class="cls-20" d="M492.9,210.81a3.57,3.57,0,1,1-3.57-3.57A3.57,3.57,0,0,1,492.9,210.81Z"/><path class="cls-20" d="M480.19,193l24,6.21s-1.1-6.74-10.92-9.19S480.19,193,480.19,193Z"/><path class="cls-20" d="M465.27,193l-24,6.21s1.09-6.74,10.92-9.19S465.27,193,465.27,193Z"/><path class="cls-26" d="M460.49,233.65s3.54,2.71,12.86,2.71a32.6,32.6,0,0,0,13.76-2.71"/><circle class="cls-28" cx="454.88" cy="211.86" r="15.18"/><circle class="cls-28" cx="492.17" cy="211.86" r="15.18"/><path class="cls-28" d="M470.06,211.86s3.59-3.36,6.93,0"/><line class="cls-28" x1="439.7" y1="211.86" x2="434.61" y2="211.73"/><line class="cls-28" x1="507.35" y1="211.86" x2="513.03" y2="211.76"/><path class="cls-20" d="M446.94,164.19s7.29,20.71,40.18,20.07c22.35-.43,27.69,15.74,27.69,15.74s-3.89-36.15-4.91-35.81-34-8.8-34-8.8Z"/><rect class="cls-1" x="194.22" y="133.91" width="645.46" height="467.55"/></g></g></g></svg>