<svg xmlns="http://www.w3.org/2000/svg" viewBox="0 0 321.96 328.91"><defs><style>.cls-1{fill:#4154f1;}.cls-2{fill:#ff735d;}.cls-3{fill:#fff;}.cls-4{fill:#e6e6e6;}</style></defs><g id="Layer_2" data-name="Layer 2"><g id="header_and_nav" data-name="header and nav"><path class="cls-1" d="M71.81,231.17c.71-2.59-.71-4.83-3.51-7.2-19.9-16.88-32.9-38.46-41.7-62.75-1-2.86-2-4.35-5.48-4.56-8-.48-15-7.71-16.11-15.74-1.18-8.85,3.43-17.22,11.67-20.29,2.73-1,3.45-2.18,3.33-5-.46-11-1.24-22.09-.73-33.1,1.77-38,28.38-67.88,66-74.69,21.72-3.93,41.7,0,58.93,14.13,4.45,3.66,7.51,9,11.17,13.65,1,1.29,1.79,2.8,2.88,4C171.21,54,178.08,70.72,178.1,90.11c0,8.78-.31,17.57-.82,26.35-.14,2.52.27,3.67,2.66,4.81,7.41,3.52,11.25,11.11,10.29,19.42-.86,7.35-6.55,14.53-14.17,15.49-5.39.68-6.61,3.4-8.19,7.66-9,24.31-22.25,45.83-42.65,62.51-1.75,1.43-1.62,5.16-2.4,8,1.18.07,1.51.18,1.61.08,3.44-3.78,3.44-3.79,7.57-.67.76.57,1.57,1.08,2.27,1.72,5.41,5,11.34,7.19,19.1,7.32,20.26.33,39.26,18,41,38.15,1.25,14.87.64,29.89.88,44.84,0,3-2,3.08-4.1,3.09q-16.05,0-32.09,0l-152.94,0c-6.07,0-6.07,0-6.07-6.11,0-11.76,0-23.53,0-35.3.11-24.67,20.49-45.1,45.2-44.85,5.8.06,10.63-1,14.84-5.06a34.22,34.22,0,0,1,6.26-4.69C67.67,232.05,69.4,231.87,71.81,231.17ZM25.17,123.39c0,5.06-.51,9.83.09,14.46,2.91,22.55,12.46,42.42,25.41,60.8,7.78,11,16.82,20.88,28.4,28.15q18.62,11.69,37.24.18a60.54,60.54,0,0,0,7.33-5c23.2-19.5,37.14-44.64,44.58-73.67a68.23,68.23,0,0,0,1.87-25l-8.8,1.11c-1.9,20.23-10.56,31.55-25.24,33.13a29.48,29.48,0,0,1-19.42-4.44c-8.12-5.16-12.37-12.82-13.64-22.51-2,0-3.82.14-5.56,0-2.6-.25-3.69.62-4.17,3.37-2.42,13.86-13.78,23.09-28.82,23.73-12.14.52-24.1-8.62-27.4-21.28-1-3.72-1-7.68-1.6-12Zm.76-4.23a72.47,72.47,0,0,1,7.58.82c2.52.53,3.79-.07,4.75-2.64a26.65,26.65,0,0,1,10.74-13,28.88,28.88,0,0,1,44.28,19c.44,2.34,1.26,3.39,3.65,3.11a11.73,11.73,0,0,1,2.84,0c2.48.33,3.4-.6,3.89-3.17a27.88,27.88,0,0,1,15.49-20.56c15-7.55,32.89-.87,39.71,14.59.48,1.09,1.66,2.61,2.54,2.63a59.17,59.17,0,0,0,8.27-.91C168,108,164.41,97.92,158,89.24c-5.2-7-11.3-13.39-17.05-20.09-17.45,8.94-35.76,10.86-54.62,9C68.84,76.47,53.77,81.72,41,93.58A51.78,51.78,0,0,0,25.93,119.16Zm39.46,34a24.45,24.45,0,0,0,24.29-24.61,24.84,24.84,0,0,0-49.68.21C40.13,142.47,51.4,153.3,65.39,153.19Zm66.68-49.29c-13.91,0-24.59,10.84-24.61,25,0,13.78,10.73,24.34,24.77,24.31a24.65,24.65,0,1,0-.16-49.29Zm-33.59,165c6.2-8.23,11.77-16.23,18-23.68,3.83-4.58,2.78-9.32,2.8-15.05-14.73,9.25-28.94,8.93-43.84-.6.45,4.17-.23,7.85,1.28,10C83.52,249.46,90.93,258.88,98.48,268.92ZM56.82,245.28c9.1,12.06,17.87,23.71,26.86,35.62L95.42,272,68.56,236.41Zm56.49,35.61,26.85-35.62L128.4,236.4,101.57,272Zm22.06-20.52-.65-.24c-5.86,7.74-11.76,15.45-17.54,23.26-1.75,2.37-3.39,4.17-6.28,1.52-3,9.84-2,31,1.89,39,3.06-8.58,6-16.95,9-25.27.46-1.25,7.37-20.43,7.84-21.93C131.41,271.23,133.45,265.82,135.37,260.37ZM85.91,285.22c-2.58,1.84-4.33.79-5.89-1.51-1.73-2.55-3.68-5-5.54-7.42q-6-7.89-12-15.77l-.75.4,22.31,62.79.87-.1C86,311,91.42,298.59,85.91,285.22Zm21.71,39-3.75-24c-3.28,0-6.12-.12-8.94.07a2.9,2.9,0,0,0-2.13,1.64c-1.25,7.33-2.31,14.69-3.47,22.31ZM19.88,124.15c-7,1.17-11.71,8.13-10.75,16.08C10,147.34,16.57,153,23,152.39Zm152.67,28.33c6,.27,12.1-4.69,13.43-11.32,1.37-6.9-2.55-14.43-8.55-16.65-1.86-.69-2.65-.19-2.8,1.73C174,134.92,173.25,143.59,172.55,152.48ZM98.41,275.4a80.78,80.78,0,0,0-6.59,5,4.34,4.34,0,0,0-1.15,3.31c.43,3.28,1.19,6.52,1.91,9.76.17.74.66,2,1.06,2,3.18.18,6.46.5,9.52-.11.91-.18,1.42-3.18,1.8-4.95C107,281.12,106.94,281.11,98.41,275.4Z"/><path class="cls-1" d="M271.31,256c-6.36-3.24-12.49-6.57-18.83-9.44-1.29-.59-3.51.15-5,.89-6,2.94-11.81,6.11-17.69,9.21-4.2,2.22-8.44,2.74-12.4-.27s-5-6.85-4-11.7c1.32-6.38,2-12.9,3.31-19.28a7.5,7.5,0,0,0-2.51-7.62c-4.62-4.44-9.2-8.94-13.81-13.4-3.37-3.25-5.48-6.92-3.88-11.76s5.1-7.08,10.09-7.66c6.36-.74,12.67-1.88,19-2.74a7.8,7.8,0,0,0,6.63-4.62c2.74-5.8,5.74-11.47,8.49-17.27,2.09-4.41,5-7.39,10.27-7.45s8.25,2.9,10.35,7.3c2.36,4.93,4.84,9.8,7.27,14.7,3.43,6.92,7.05,8.77,15.61,7.67-.52-1.25-.9-2.44-1.48-3.52-9.17-17-23.13-28.05-41.71-33.15a14.58,14.58,0,0,0-7,.21,62.7,62.7,0,0,0-22.36,10.68,6.91,6.91,0,0,1-2.75,1.5c-.67.1-2.14-.84-2.1-1.15.17-1.14.51-2.6,1.33-3.25a66,66,0,0,1,26.07-12.62,70.93,70.93,0,0,1,87,59.61c5.33,38.46-22.71,74.71-61.36,79.34a70.75,70.75,0,0,1-79.45-75.46,67.14,67.14,0,0,1,11.61-33.58c.71-1.05,2.56-1.32,3.88-2-.05,1.46.44,3.27-.24,4.32a68.12,68.12,0,0,0-10.91,38.11c.23,29.43,22.75,57,51.59,63a6.74,6.74,0,0,0,2.79.07,62.86,62.86,0,0,0,31.1-17.11A11.56,11.56,0,0,0,271.31,256Zm-53.47-8.9c-.2,5.25,4.31,8,8.89,5.75,6.05-3,12.06-6.14,18-9.44a12.15,12.15,0,0,1,12.8,0c5.71,3.16,11.56,6.06,17.31,9.15,2.5,1.34,4.92,1.82,7.31,0s2.49-4.34,2-7.09c-1.19-6.54-2.13-13.12-3.4-19.64-.89-4.55.5-8.08,3.79-11.19,4.82-4.57,9.51-9.29,14.28-13.92,1.89-1.83,3.24-3.82,2.37-6.61s-3.1-4-5.89-4.39c-6.58-.92-13.14-2-19.73-2.82a11.65,11.65,0,0,1-9.85-7.11c-2.83-6-5.9-11.91-8.8-17.89-1.23-2.53-2.87-4.35-5.92-4.3-2.9,0-4.45,1.84-5.62,4.23-3,6.18-6.13,12.32-9.13,18.51a11.08,11.08,0,0,1-9.12,6.5c-6.69.92-13.38,1.95-20.08,2.88-2.63.36-4.89,1.25-5.8,4s.06,5,2.16,7c4.82,4.58,9.5,9.31,14.34,13.87,3.52,3.32,4.63,7.17,3.7,11.93C220,233.49,219,240.53,217.84,247.14Zm72.65-30.63c-5.75,3.43-6.34,6.16-3.09,14.23C288.38,226.22,289.37,221.69,290.49,216.51Z"/><path class="cls-2" d="M301.09,19.54c1,1.52,1.7,2.4,2.25,3.35,2,3.49,3.36,7.55,6.05,10.34s6.52,3.93,9.82,5.89a22.05,22.05,0,0,1,2.48,2,10.08,10.08,0,0,1-1.95,2.23c-3.4,2.14-7.07,3.9-10.29,6.27a16.13,16.13,0,0,0-6.58,11c-.13,1-1.17,1.79-1.78,2.67a12.1,12.1,0,0,1-2.39-2.53c-1.89-3.67-3.3-7.62-5.45-11.12s-5.59-5.32-9.61-6.22c-1.16-.26-2.12-1.38-3.17-2.1.94-.74,1.77-1.83,2.84-2.15,8.37-2.55,14.33-7.25,15.61-16.51C299.05,21.75,300.09,21,301.09,19.54Zm10.82,22.38-9.08-9.61L292.78,42.76l7.89,9.45C304.31,48.88,308.27,45.24,311.91,41.92Z"/><path class="cls-2" d="M250.93,32.46a37.36,37.36,0,0,1-2.3-3.53c-1-2.13-1.45-4.75-3-6.37-2-2.12-4.85-3.43-7.29-5.15A25,25,0,0,1,236,15.27c.69-.68,1.26-1.75,2.09-2C243.92,11.55,248,8.26,249,2c.13-.76,1.13-2,1.59-1.95A3.68,3.68,0,0,1,253,1.62c1,1.6,1.51,3.48,2.46,5.1a12.62,12.62,0,0,0,8.16,6.41c.95.22,1.71,1.25,2.55,1.9A13.42,13.42,0,0,1,264,17.45c-2.14,1.47-4.79,2.39-6.53,4.2s-3,4.66-4.38,7.05C252.45,29.7,251.9,30.73,250.93,32.46Zm-.14-10.55,6.8-6.25-5.66-6-6.28,6Z"/><path class="cls-2" d="M251.82,47.65a32.82,32.82,0,0,1,2.34,3c1.32,2.23,2.18,4.84,3.88,6.71s4,2.77,6,4.1c1,.65,2,1.28,3,1.92a20.45,20.45,0,0,1-2.68,2.81c-1.43,1-3.14,1.67-4.6,2.68-3,2.08-5.32,4.63-5.93,8.49-.14.93-1.29,1.71-2,2.56a12.7,12.7,0,0,1-2.23-2.36c-.69-1.22-.94-2.67-1.52-4-1.79-4-4.44-7-9-7.84-.82-.17-2-1.17-2.06-1.83a2.88,2.88,0,0,1,1.76-2.16c6-1.62,10.07-5.05,11.14-11.49C250.13,49.52,251,48.87,251.82,47.65Zm-.07,22.77,6.8-6.25L253,58.29l-6.67,5.55Z"/><path class="cls-3" d="M25.17,123.39l10.27,1c.55,4.31.63,8.27,1.6,12,3.3,12.66,15.26,21.8,27.4,21.28,15-.64,26.4-9.87,28.82-23.73.48-2.75,1.57-3.62,4.17-3.37,1.74.17,3.52,0,5.56,0,1.27,9.69,5.52,17.35,13.64,22.51a29.48,29.48,0,0,0,19.42,4.44c14.68-1.58,23.34-12.9,25.24-33.13l8.8-1.11a68.23,68.23,0,0,1-1.87,25c-7.44,29-21.38,54.17-44.58,73.67a60.54,60.54,0,0,1-7.33,5q-18.66,11.46-37.24-.18c-11.58-7.27-20.62-17.1-28.4-28.15-13-18.38-22.5-38.25-25.41-60.8C24.66,133.22,25.17,128.45,25.17,123.39Zm74.62,69.34c7.45-.27,15.11-4,19.73-12.69.52-1-.2-2.62-.35-3.95-1.07.64-2.67,1-3.14,2-7,13.87-30.06,14.23-36.67.11-.47-1-2.28-1.36-3.46-2-.05,1.34-.61,3-.07,4C80.45,188.88,87.93,192.82,99.79,192.73Z"/><path class="cls-3" d="M25.93,119.16A51.78,51.78,0,0,1,41,93.58C53.77,81.72,68.84,76.47,86.32,78.17c18.86,1.84,37.17-.08,54.62-9,5.75,6.7,11.85,13.06,17.05,20.09,6.42,8.68,10,18.72,11.68,29.81a59.17,59.17,0,0,1-8.27.91c-.88,0-2.06-1.54-2.54-2.63-6.82-15.46-24.73-22.14-39.71-14.59a27.88,27.88,0,0,0-15.49,20.56c-.49,2.57-1.41,3.5-3.89,3.17a11.73,11.73,0,0,0-2.84,0c-2.39.28-3.21-.77-3.65-3.11a28.88,28.88,0,0,0-44.28-19,26.65,26.65,0,0,0-10.74,13c-1,2.57-2.23,3.17-4.75,2.64A72.47,72.47,0,0,0,25.93,119.16Z"/><path class="cls-3" d="M65.39,153.19c-14,.11-25.26-10.72-25.39-24.4a24.84,24.84,0,0,1,49.68-.21A24.45,24.45,0,0,1,65.39,153.19Zm5.87-17A7.18,7.18,0,1,0,71,121.84a7.18,7.18,0,0,0,.26,14.35Z"/><path class="cls-3" d="M132.07,103.9a24.65,24.65,0,1,1,.16,49.29c-14,0-24.8-10.53-24.77-24.31C107.48,114.74,118.16,103.9,132.07,103.9Zm-7.9,32.29a7.18,7.18,0,0,0-.15-14.35,7.18,7.18,0,1,0,.15,14.35Z"/><path class="cls-3" d="M98.48,268.92c-7.55-10-15-19.46-21.75-29.3-1.51-2.18-.83-5.86-1.28-10,14.9,9.53,29.11,9.85,43.84.6,0,5.73,1,10.47-2.8,15.05C110.25,252.69,104.68,260.69,98.48,268.92Z"/><path class="cls-4" d="M56.82,245.28l11.74-8.87L95.42,272,83.68,280.9C74.69,269,65.92,257.34,56.82,245.28Z"/><path class="cls-4" d="M113.31,280.89,101.57,272,128.4,236.4l11.76,8.87Z"/><path class="cls-3" d="M135.37,260.37c-1.92,5.45-4,10.86-5.69,16.36-.47,1.5-7.38,20.68-7.84,21.93-3.06,8.32-6,16.69-9,25.27-3.85-8.05-4.87-29.18-1.89-39,2.89,2.65,4.53.85,6.28-1.52,5.78-7.81,11.68-15.52,17.54-23.26Z"/><path class="cls-3" d="M85.91,285.22c5.51,13.37.11,25.78-1,38.39l-.87.1L61.77,260.92l.75-.4q6,7.89,12,15.77c1.86,2.46,3.81,4.87,5.54,7.42C81.58,286,83.33,287.06,85.91,285.22Z"/><path class="cls-2" d="M107.62,324.23H89.33c1.16-7.62,2.22-15,3.47-22.31a2.9,2.9,0,0,1,2.13-1.64c2.82-.19,5.66-.07,8.94-.07Z"/><path class="cls-3" d="M19.88,124.15,23,152.39c-6.4.62-13-5-13.84-12.16C8.17,132.28,12.91,125.32,19.88,124.15Z"/><path class="cls-3" d="M172.55,152.48c.7-8.89,1.4-17.56,2.08-26.24.15-1.92.94-2.42,2.8-1.73,6,2.22,9.92,9.75,8.55,16.65C184.65,147.79,178.6,152.75,172.55,152.48Z"/><path class="cls-2" d="M98.41,275.4c8.53,5.71,8.57,5.72,6.55,15-.38,1.77-.89,4.77-1.8,4.95-3.06.61-6.34.29-9.52.11-.4,0-.89-1.26-1.06-2-.72-3.24-1.48-6.48-1.91-9.76a4.34,4.34,0,0,1,1.15-3.31A80.78,80.78,0,0,1,98.41,275.4Z"/><path class="cls-2" d="M217.84,247.14c1.13-6.61,2.19-13.65,3.56-20.63.93-4.76-.18-8.61-3.7-11.93-4.84-4.56-9.52-9.29-14.34-13.87-2.1-2-3.08-4.24-2.16-7s3.17-3.62,5.8-4c6.7-.93,13.39-2,20.08-2.88a11.08,11.08,0,0,0,9.12-6.5c3-6.19,6.11-12.33,9.13-18.51,1.17-2.39,2.72-4.18,5.62-4.23,3.05-.05,4.69,1.77,5.92,4.3,2.9,6,6,11.88,8.8,17.89a11.65,11.65,0,0,0,9.85,7.11c6.59.81,13.15,1.9,19.73,2.82,2.79.4,5,1.5,5.89,4.39s-.48,4.78-2.37,6.61c-4.77,4.63-9.46,9.35-14.28,13.92-3.29,3.11-4.68,6.64-3.79,11.19,1.27,6.52,2.21,13.1,3.4,19.64.5,2.75.4,5.24-2,7.09s-4.81,1.37-7.31,0c-5.75-3.09-11.6-6-17.31-9.15a12.15,12.15,0,0,0-12.8,0c-5.9,3.3-11.91,6.41-18,9.44C222.15,255.18,217.64,252.39,217.84,247.14Z"/><path class="cls-3" d="M290.49,216.51c-1.12,5.18-2.11,9.71-3.09,14.23C284.15,222.67,284.74,219.94,290.49,216.51Z"/><path class="cls-1" d="M99.79,192.73c-11.86.09-19.34-3.85-24-12.56-.54-1,0-2.66.07-4,1.18.65,3,1,3.46,2,6.61,14.12,29.72,13.76,36.67-.11.47-.95,2.07-1.34,3.14-2,.15,1.33.87,3,.35,3.95C114.9,188.75,107.24,192.46,99.79,192.73Z"/><path class="cls-1" d="M71.26,136.19A7.18,7.18,0,0,1,71,121.84a7.18,7.18,0,1,1,.26,14.35Z"/><path class="cls-1" d="M124.17,136.19a7.18,7.18,0,1,1-.15-14.35,7.18,7.18,0,0,1,.15,14.35Z"/></g></g></svg>