<svg xmlns="http://www.w3.org/2000/svg" viewBox="0 0 41.02 41.01"><defs><style>.cls-1{fill:#ff735d;}.cls-2{fill:#4154f1;}</style></defs><g id="Layer_2" data-name="Layer 2"><g id="header_and_nav" data-name="header and nav"><path class="cls-1" d="M40.31,43.51A17.35,17.35,0,0,0,25.18,26.36a16.77,16.77,0,0,0-13.83,4.41A17,17,0,0,0,5.8,41.67c-.07.61-.06,1.23-.1,1.84H2.5v-1.2c.11-.79.18-1.58.32-2.37A20.09,20.09,0,0,1,8.66,28.87,20.27,20.27,0,0,1,16,24.24l.28-.12a11.8,11.8,0,0,1-5.08-10A11.37,11.37,0,0,1,14.72,5.9,11.86,11.86,0,1,1,29.85,24.07c8.54,3.66,13.34,10,13.67,19.44ZM23,5.7a8.65,8.65,0,1,0,8.64,8.68A8.67,8.67,0,0,0,23,5.7Z" transform="translate(-2.5 -2.5)"/><path class="cls-2" d="M23,2.5a11.78,11.78,0,0,0-8.27,3.4,11.37,11.37,0,0,0-3.55,8.23,11.8,11.8,0,0,0,5.08,10l-.28.12a20.27,20.27,0,0,0-7.31,4.63A20.09,20.09,0,0,0,2.82,39.94c-.14.79-.21,1.58-.32,2.37v1.2H5.7c0-.61,0-1.23.1-1.84a17,17,0,0,1,5.55-10.9,16.65,16.65,0,0,1,11.5-4.55,20.64,20.64,0,0,1,2.33.14A17.35,17.35,0,0,1,40.31,43.51h3.21C43.19,34,38.39,27.73,29.85,24.07A11.88,11.88,0,0,0,23,2.5ZM23,23h0A8.65,8.65,0,0,1,23,5.7h0A8.65,8.65,0,0,1,23,23Z" transform="translate(-2.5 -2.5)"/></g></g></svg>