<svg xmlns="http://www.w3.org/2000/svg" viewBox="0 0 61.67 41.14"><defs><style>.cls-1{fill:#ff735d;}.cls-2{fill:#4154f1;}</style></defs><g id="Layer_2" data-name="Layer 2"><g id="header_and_nav" data-name="header and nav"><path class="cls-1" d="M8,41.13a5.2,5.2,0,0,1-5.28-3.57,6.57,6.57,0,0,1-.27-1.88q0-13.75,0-27.51V7.93A5.22,5.22,0,0,1,7.92,2.48H56.09A5.26,5.26,0,0,1,61.41,6.1c.08.24.14.48.2.72l.06.21V36.51l-.27.74a7.74,7.74,0,0,1-.72,1.66,5,5,0,0,1-4.52,2.23ZM2.56,35.64A5.1,5.1,0,0,0,7.93,41H56.22a5.09,5.09,0,0,0,5.36-5.39c0-4.28,0-8.57,0-12.86V19.92c0-.17,0-.33,0-.51L61.49,18H2.56Zm.08-17.8H61.49v-7.5H2.64ZM7.91,2.6A5.3,5.3,0,0,0,3.7,4.49a5.5,5.5,0,0,0-1,4.67l.2,1H61.58V8A5.07,5.07,0,0,0,56.19,2.6H7.91Z" transform="translate(-1.24 -1.24)"/><path class="cls-2" d="M12.35,1.24H7.92A6.44,6.44,0,0,0,1.24,7.93q0,13.88,0,27.76a7.69,7.69,0,0,0,.33,2.24A6.42,6.42,0,0,0,8,42.37H56.16a6.22,6.22,0,0,0,5.55-2.78,15.72,15.72,0,0,0,1.2-2.85V6.87c-.11-.38-.2-.77-.32-1.15a6.46,6.46,0,0,0-6.5-4.48H12.35ZM3.88,8.92a4,4,0,0,1,4-5.09H56.19A3.87,3.87,0,0,1,60.35,8v.91Zm0,7.69v-5H60.26v5ZM32.05,39.78H7.93A3.86,3.86,0,0,1,3.8,35.64c0-5.24,0-10.48,0-15.72v-.65H60.32c0,.23,0,.44,0,.65q0,7.86,0,15.71a3.85,3.85,0,0,1-4.12,4.15Z" transform="translate(-1.24 -1.24)"/><path class="cls-1" d="M50,33.44c-.52,0-1,0-1.54-.07a2.51,2.51,0,0,1-2.29-2.58c0-.85,0-1.69,0-2.54a2.51,2.51,0,0,1,2.33-2.6c.49,0,1-.06,1.48-.06s1.22,0,1.82.09A2.53,2.53,0,0,1,54,28.16v.17l0,1.24c0,.18,0,.36,0,.54a7.55,7.55,0,0,1,0,1,2.49,2.49,0,0,1-2.18,2.28A17.44,17.44,0,0,1,50,33.44Zm.81-.13h.5a2.48,2.48,0,0,0,2.55-2.48c0-.88,0-1.77,0-2.64a2.46,2.46,0,0,0-2.51-2.46l-1.29,0-1.37,0a2.47,2.47,0,0,0-2.43,2.42c0,.92,0,1.84,0,2.73a2.45,2.45,0,0,0,2.41,2.42h2.14Z" transform="translate(-1.24 -1.24)"/><path class="cls-2" d="M50,24.35c-.53,0-1.06,0-1.59.07a3.73,3.73,0,0,0-3.45,3.81q0,1.29,0,2.58a3.73,3.73,0,0,0,3.4,3.79c.55,0,1.1.08,1.66.08s1.26,0,1.88-.1a3.73,3.73,0,0,0,3.29-3.39,14.58,14.58,0,0,0,0-1.62h0c0-.48,0-1,0-1.45a3.72,3.72,0,0,0-3.26-3.66,18.06,18.06,0,0,0-2-.11Zm-.74,7.72h-.5a1.22,1.22,0,0,1-1.24-1.22c0-.88,0-1.76,0-2.65A1.21,1.21,0,0,1,48.73,27l1.33,0h1.26a1.25,1.25,0,0,1,1.31,1.29c0,.84,0,1.68,0,2.53a1.27,1.27,0,0,1-1.36,1.29h-2Z" transform="translate(-1.24 -1.24)"/><path class="cls-1" d="M10.62,33.42a2,2,0,0,1-.44,0,1.47,1.47,0,0,1,.46-.07H25.19a2.43,2.43,0,0,1,.49,0,1,1,0,0,1-.44.07H10.62Z" transform="translate(-1.24 -1.24)"/><path class="cls-2" d="M14.66,32.07h-4a2.91,2.91,0,0,0-.78.08,1.25,1.25,0,0,0,0,2.41,2.85,2.85,0,0,0,.77.09H25.24A3.35,3.35,0,0,0,26,34.6a1.21,1.21,0,0,0,1-1.22A1.2,1.2,0,0,0,26,32.15a3.35,3.35,0,0,0-.77-.07H14.66Z" transform="translate(-1.24 -1.24)"/><path class="cls-1" d="M10.4,28.28h-.12s-.09,0-.09-.05a5.64,5.64,0,0,1,.79,0H25.65a.17.17,0,0,1-.17.08Z" transform="translate(-1.24 -1.24)"/><path class="cls-2" d="M11,27l-.79,0A1.25,1.25,0,0,0,9,28.19a1.3,1.3,0,0,0,1.22,1.32H25.48l.33,0a1.25,1.25,0,0,0,1.1-1.29A1.22,1.22,0,0,0,25.77,27H11Z" transform="translate(-1.24 -1.24)"/></g></g></svg>