<svg xmlns="http://www.w3.org/2000/svg" viewBox="0 0 298 264"><defs><style>.cls-1{fill:#4154f1;}.cls-2{fill:#fff;}.cls-3{fill:#ff735d;}</style></defs><g id="Layer_2" data-name="Layer 2"><g id="header_and_nav" data-name="header and nav"><path class="cls-1" d="M287.88,0H109.12C103.55,0,99,4.13,99,9.18V134.69c0,5.05,4.55,9.18,10.12,9.18H253.2l13.69,22.81,12.66-22.81h8.33c5.57,0,10.12-4.13,10.12-9.18V9.18C298,4.13,293.45,0,287.88,0Z"/><circle class="cls-2" cx="140.32" cy="52.14" r="15.18"/><circle class="cls-2" cx="256.68" cy="52.14" r="15.18"/><circle class="cls-2" cx="198.5" cy="52.14" r="15.18"/><path class="cls-3" d="M184.6,104.73H10.4A10.43,10.43,0,0,0,0,115.13V233a10.43,10.43,0,0,0,10.4,10.4H184.6A10.43,10.43,0,0,0,195,233V115.13A10.43,10.43,0,0,0,184.6,104.73Z"/><circle class="cls-2" cx="33.8" cy="174.93" r="15.6"/><circle class="cls-2" cx="153.4" cy="174.93" r="15.6"/><circle class="cls-2" cx="93.6" cy="174.93" r="15.6"/><polygon class="cls-3" points="40.08 264 17.66 225.17 62.5 225.17 40.08 264"/></g></g></svg>