<svg xmlns="http://www.w3.org/2000/svg" viewBox="0 0 286.61 322"><defs><style>.cls-1{fill:#eeecee;}.cls-2{fill:#ff735d;}.cls-3{fill:#e2dfe3;}.cls-4{fill:#4154f1;}.cls-5{fill:#feccbd;}.cls-6{fill:#a4ace2;}.cls-7{fill:#a3abe2;}.cls-8{fill:#3d4ec3;}.cls-9{fill:#fecf64;}.cls-10{fill:#eaad9c;}.cls-11{fill:#fefefe;}.cls-12{fill:#eeebed;}</style></defs><g id="Layer_2" data-name="Layer 2"><g id="header_and_nav" data-name="header and nav"><path class="cls-1" d="M4.09,0H156.93c3.47.83,4.1,3.47,4.12,6.49q.06,13.34,0,26.67c0,10.56.17,21.12-.11,31.67a6.39,6.39,0,0,1-2.27,4c-9.63,9.3-19.44,18.41-29.23,27.53-4.51,4.21-9,8.43-13.47,12.7-2.85,2.73-3.83,5.92-2,9.66.41.85,1,1.94.36,2.68-2.12,2.47-3,5.69-5.15,8.14-2.2.83-4,2.59-6.49,2.75-15,.29-29.94.05-44.9.13-1.36,0-2.73,0-4.08.08-2.95.28-4.83,1.8-4.94,3.93s1.82,3.7,4.78,4a30.51,30.51,0,0,0,3.45.09c9.31,0,18.63,0,27.95,0,1.64,0,3.38-.29,4.79,1a3,3,0,0,1,0,2.93,16.6,16.6,0,0,0-1.13,6.89,7.21,7.21,0,0,1-.36,2.48c-3.2,3.64-7.85,5.06-11.74,7.66-2.35,1.56-5,2.71-7.32,4.29s-3.1,3.54-2,5.54,3.39,2.77,6,1.38c5.18-2.76,10.21-5.77,15.3-8.68A12.23,12.23,0,0,1,93,162c2.85,1.22,5.32,3.28,8.52,3.76,4.6.69,8.59-.84,12.47-3.1,2.22-1.29,4.26-3,6.95-3.39,1.29.21,1.87,1.2,2.46,2.2,6.52,11.15,12.94,22.36,19.48,33.5.79,1.35,2.41,3-.07,4.46a20.62,20.62,0,0,1-5.32.31H56.45a22.26,22.26,0,0,0-4.69.24,3.46,3.46,0,0,0-2.91,3.27c-.16,1.81.95,2.92,2.56,3.52a10.68,10.68,0,0,0,3.73.4q44.46,0,88.92,0a19.38,19.38,0,0,0,5-.6,2.23,2.23,0,0,1,1.8.15c3.31,2.46,7.82,3.32,10,7.36.56,4.48.23,9,.26,13.46.06,9,0,18,0,26.93a14.34,14.34,0,0,1-.39,4.66c-.76,1.56-2.36,1.56-3.73,1.94-4,1.1-5.72,3.2-6,7.32-.13,1.63.32,3.37-.88,4.81-1.34.83-2.84.64-4.29.64q-68.55,0-137.1,0C1.87,273.85.08,272,0,265.24c0-3,0-6.08,0-9.12.1-4.1.8-5.05,4.73-6.32,6-1.92,10.2-5.72,12-11.82,2.43-8.17-2.17-16.84-10.48-20C.18,215.66.05,215.48,0,208.92c0-5.35,0-10.69,0-16,0-5.65.47-6.28,5.78-8.19,12.66-4.56,15.62-19.82,5.55-28.58a19.66,19.66,0,0,0-6.95-3.54C1.18,151.48.14,150.2.09,146.84q-.18-10.36,0-20.75c.05-3.5,1.08-4.64,5-5.9,6-2,10.13-5.82,11.82-12C19.12,100,14.44,91.44,6.1,88.36c-6-2.22-6-2.26-6.06-8.82C0,73.78,0,68,.05,62.25c0-4.25.73-5.2,4.81-6.63,6.25-2.19,10.7-6.13,12.17-12.81A16.67,16.67,0,0,0,6.33,23.74C.19,21.55,0,21.36,0,14.71c0-3,0-6.08,0-9.12C.14,2.82,1.15.71,4.09,0Z"/><path class="cls-2" d="M151.89,322a6.94,6.94,0,0,1-1.89-5.38c.05-14.55,0-29.11-.05-43.66,0-.83.08-1.66.08-2.49,0-7.68,2.32-10.11,10.05-10.71a4,4,0,0,1,2.87-.92c11.8-.27,23.6-.1,35.39-.11,12.53,0,25.06-.14,37.58.08,2.64,0,5.3-.38,7.9.45,4.3,2.12,6.05,5.48,6,10.36-.18,15.86-.06,31.73-.08,47.59,0,1.65.24,3.38-1,4.79Z"/><path class="cls-3" d="M177.68,0c2.74,2.13,3.23,5,3.2,8.3-.14,11.66-.07,23.33,0,35,0,1.1-.41,2.32.58,3.26-1.86,3.57-5.08,5.94-7.94,8.54-3.41,3.09-6.66,6.33-10,9.49-.91.87-1.69,2.29-3.38,1.49,0-19.82-.07-39.64,0-59.47,0-2.89-.82-5-3.2-6.61Z"/><path class="cls-4" d="M248.75,322c0-17-.14-34,.13-51,.07-4.81-.86-8.59-5.16-11.08,3.73-1.91,7.5-1.61,11.28-.2,2.27.36,4.6-.21,6.87.49,3.61,1.1,5.79,3.48,5.81,7.23.1,17,.05,33.92.11,50.88,0,1.48-.8,2.52-1.43,3.69Z"/><path class="cls-5" d="M160.1,66.08c1.41-.13,2.08-1.29,3-2.13q9.19-8.69,18.35-17.39c3.1-2.12,5-5.8,8.81-7,2.13-.8,3.29.87,4.54,2,2.76,2.41,4.76,5.49,7,8.36,3.78,4.83,7.67,9.57,11.47,14.39.84,1.07,1.83,2.07,1.24,3.62-2.35,2.48-5.52,3.72-8.39,5.38q-35.59,20.57-71.18,41.11a5.64,5.64,0,0,0-2.42,1.88c6.79,2.29,9.77,8.52,14.08,13.38,2.82,3.34,5.49,6.82,8.26,10.2,1.92,2.42,3.79,4.88,5.84,7.19,2.7,4.75,6.86,7.19,12.2,8a62.82,62.82,0,0,1,8.13,2c6.8,2,5.4,1.87,8.74-3.47,2.28-3.63,4.4-7.37,6.7-11a17.29,17.29,0,0,0,1.58-16.5c-1.19-3-2.91-5.81-3.21-9.13a4.13,4.13,0,0,1,2.33-2.41c11.9-6.81,23.71-13.79,35.67-20.52,1-.56,2-1.19,3.24-.69,6.21,6.67,12.14,13.61,16.84,21.41,3.18,5.27,3.13,11.18,1.14,17-3.18,9.31-6.64,18.52-10,27.78q-9.44,26.13-18.86,52.27a14.1,14.1,0,0,0-.72,4.94c0,4.71.08,9.42,0,14.13-.08,3.11-.69,3.78-3.7,3.79-14.34.07-28.68,0-43,0a4.56,4.56,0,0,1-2.43-.5c-1.53-1.69-1.13-3.82-.89-5.68.59-4.72-1.24-7.56-5.53-9.62-3.12-1.5-6.58-2.78-8.8-5.78l-10-6.32c-3.27-1.88-5.11-4.85-6.28-8.32-2.78-6.29-6.76-11.9-10.06-17.9C130,174,126.12,167.52,122.29,161a8,8,0,0,0-1.28-1.32c-3-3.37-4.54-7.62-7.11-11.25-1.52-2.73-3.31-5.33-4.43-8.26-1.42-3.66-2-7.41-.36-11.2,1.35-2.54,2.16-5.39,4.45-7.4,1-.86.08-1.73-.28-2.54-1.78-4-1.43-7.08,1.66-10,12.15-11.45,24.42-22.78,36.59-34.22C154.5,72,157.25,69,160.1,66.08Z"/><path class="cls-6" d="M99.34,64.79q23.07,0,46.16,0c4.09,0,6.27,2.13,5.78,5.59a4.13,4.13,0,0,1-3.45,3.92,21.94,21.94,0,0,1-4.35.47q-43.8,0-87.61,0a16.32,16.32,0,0,1-4.35-.49c-2.57-.69-4.34-2.87-4-5.21a4.61,4.61,0,0,1,4.67-4.25c3.14-.13,6.28,0,9.42,0Z"/><path class="cls-7" d="M143.74,198.57q3.13,4.17,6.28,8.32a6.25,6.25,0,0,1-4.37,1.31q-46,0-92,0c-2.64,0-4.79-.62-5.81-3.28-.83-2.16.09-3.85,1.63-5.33,1.31-1.26,2.94-.9,4.47-.9q43.2,0,86.38,0C141.44,198.67,142.59,198.61,143.74,198.57Z"/><path class="cls-6" d="M89.76,142.2c-1-1.2-2.34-.69-3.52-.7q-16.33-.06-32.66,0a5.88,5.88,0,0,1-5.68-3.18c-.91-1.72-.24-3.29.74-4.69,1.18-1.68,3-2.14,5-2.14q25,0,49.92.05a1.45,1.45,0,0,1-1,1.44A72.56,72.56,0,0,0,89.76,142.2Z"/><path class="cls-4" d="M89.76,142.2c2.85-4.77,7.73-7,12.22-9.67.52-.32,1-.67,1.54-1,2-.58,3.39-2.45,5.59-2.58-1.44,7.46,2.1,13.47,5.64,19.48-6.88,5.29-14,9.54-23.17,5.81a7.58,7.58,0,0,1-3.75-2.66C87.33,148.22,88.32,145.17,89.76,142.2Z"/><path class="cls-8" d="M87.83,151.58c3,1.29,5.92,2.83,9.34,3.22,5.24.59,9.26-1.93,13.37-4.39a12.51,12.51,0,0,1,4.21-2c2.22,3.67,4.78,7.15,6.26,11.23-2.1,1.15-4.28,2.18-6.29,3.48-7.55,4.88-14.87,4.88-22-.79a9.3,9.3,0,0,1-4.88-8.29Z"/><path class="cls-3" d="M160.07,213.21c4,2.24,8,4.54,12,6.7a5.15,5.15,0,0,1,3.09,5.54c-.24,2.81,0,5.65-.06,8.47-2,1.75-4.67.26-6.81,1.38-3.78.92-4.57,3.9-4.74,7.15-.24,4.45,0,8.91-.1,13.37,0,1.33.15,2.71-.7,3.9l-2.71,0Q160.07,236.48,160.07,213.21Z"/><path class="cls-9" d="M87.83,154.06a24.81,24.81,0,0,0,4.88,8.29c-6.32,3.67-12.61,7.39-19,11-3.12,1.77-5.85,1.1-7.33-1.52s-.61-5,2.43-6.78C75.13,161.31,81.49,157.71,87.83,154.06Z"/><path class="cls-10" d="M168.24,234.52c2.22-1.15,4.62-.18,6.9-.6,15.19,0,30.37,0,45.55.09,2.46,0,3.17-.86,2.91-3.1-.12-1,.09-2.11,0-3.14-1.16-10.06,1.54-19.36,5.14-28.61,4.39-11.28,8.36-22.72,12.49-34.11,3.78-10.4,7.37-20.87,11.32-31.2,3.48-9.1,2-17.12-4.2-24.5-4.36-5.17-8.58-10.47-12.86-15.71-.08-.88.55-1.34,1.15-1.71,3.57-2.15,7.18-4.23,10.85-6.21a1.89,1.89,0,0,1,1.79-.14c4.22,6.24,9.29,11.8,13.85,17.76,2.29,3,4.77,5.84,6.95,8.9,4.62,6.49,5,13.53,2.33,20.87q-11.61,32.12-23.23,64.23-2.61,7.22-5.25,14.42a12.72,12.72,0,0,0-.85,4.59c.07,5.86,0,11.72,0,17.58a3,3,0,0,1-2.59.87c-7.13-.22-14.18,1-21.32.87-15.29-.21-30.59,0-45.88-.09C171.57,235.58,169.7,236,168.24,234.52Z"/><path class="cls-4" d="M146.23,130.18c-1.34-1.59-2.74-3.14-4-4.79-3-4-6.26-7.6-12.17-9l84.11-48.69a42.87,42.87,0,0,1,13.9-8.1q10.83-6.18,21.65-12.36c5.25-3,5.5-3,9,1.84,2.72,2.91,4.43,6.43,6.07,10,0,3-2.09,4.37-4.32,5.66C249.71,71,238.92,77.17,228.15,83.41q-39.5,22.88-79.05,45.64A5,5,0,0,1,146.23,130.18Z"/><path class="cls-4" d="M168.24,234.52c20,0,39.93.21,59.88-.09,5-.08,10-.37,15-.5,2.32.42,4.76-.5,7,.57-1,1.18-2.47,1-3.8,1-3.56.06-7.11,0-10.69,0,2.7,7.45,1.15,15,1.32,22.54a2.73,2.73,0,0,1-.78,1.68l-73.39,0c0-5.94-.18-11.89-.06-17.82C162.82,237.11,164.32,235.31,168.24,234.52Z"/><path class="cls-8" d="M146.23,130.18c6.13-4.35,12.85-7.72,19.32-11.5q31.74-18.51,63.59-36.85Q244.46,73,259.82,64.28c2.12-1.21,4.1-2.45,4.5-5.13,2.75,2,4,4.95,4.88,8.13,2.34,4.76,2.13,5.43-2.47,8.1q-8.75,5.09-17.47,10.2l-13.8,8.06q-17.09,9.75-34.15,19.51c-2.06,1.19-4.05,2.49-6.08,3.74-3.38,3.28-7.81,4.92-11.69,7.42-.78.5-1.64.87-2.41,1.38-6.93,3.91-13.74,8-20.7,11.9-2,.83-3.51,2.92-6,2.69A107.08,107.08,0,0,1,146.23,130.18Z"/><path class="cls-10" d="M228.07,59.61l-13.9,8.11c-.6-3.06-3.17-4.77-4.9-7-4.23-5.54-8.5-11-12.91-16.44-1.62-2-3.44-3.94-6.12-4.63C196.69,35,207.5,36,213.6,41.94,219.06,47.28,223.42,53.58,228.07,59.61Z"/><path class="cls-2" d="M236.18,259.76c0-5.75-.1-11.51,0-17.27a10.37,10.37,0,0,0-2.71-8h16.62c3.39,1,4.87,2.75,4.89,6.19,0,6.34,0,12.68,0,19l-11.28.2Z"/><path class="cls-2" d="M269.2,67.28q-2.43-4.07-4.88-8.13c-1.83-3.37-4.15-6.47-5.59-10.06,4.3-2.55,8.48-5.32,12.92-7.58A10.14,10.14,0,0,1,285.31,46a10.28,10.28,0,0,1-3.54,13.74C277.66,62.35,273.4,64.77,269.2,67.28Z"/><path class="cls-11" d="M180.82,125.14a155.44,155.44,0,0,1,14.41-8.25c1.14,2.92,2.22,5.87,3.43,8.75,2.61,6.18,2,12-1.61,17.62-2.68,4.23-5.42,8.46-7.74,12.9-1.49,2.88-3.18,3.77-6.1,2.41a18.75,18.75,0,0,0-2.38-.73,4.91,4.91,0,0,1-1-3.52c0-8.44,0-16.87,0-25.31A6.93,6.93,0,0,1,180.82,125.14Z"/><path class="cls-3" d="M180.82,125.14q0,16.35,0,32.7c-3.42-.84-6.79-1.92-10.26-2.47-5.11-.8-8.24-3.87-10.51-8.19a11.93,11.93,0,0,1,0-10.05Q170.25,130.79,180.82,125.14Z"/><path class="cls-12" d="M160.08,137.13c0,3.35,0,6.7,0,10.05-2.31-1.94-3.92-4.47-5.65-6.9Z"/></g></g></svg>